<svg width="18" height="18" viewBox="0 0 18 18" fill="none" xmlns="http://www.w3.org/2000/svg">
<path d="M0.932871 7.37584H8.61012C9.53892 7.38254 10.4376 7.04598 11.1335 6.43072C11.8294 5.81547 12.2736 4.96487 12.3809 4.04225C12.4843 3.00603 12.1409 1.97479 11.4367 1.20751C10.7376 0.439954 9.74799 0.00174857 8.70979 0H6.63818C6.30496 0 5.99707 0.177857 5.83044 0.466354C5.66383 0.754971 5.66383 1.11055 5.83044 1.39916C5.99705 1.68765 6.30496 1.86552 6.63818 1.86552H8.70979C9.23477 1.86619 9.73407 2.0932 10.08 2.48815C10.4258 2.88312 10.5849 3.40796 10.5164 3.92856C10.4477 4.3752 10.2192 4.78169 9.87324 5.07243C9.52743 5.36332 9.08775 5.51855 8.636 5.50957H0.9327C0.599484 5.50957 0.291592 5.68729 0.124964 5.97592C-0.0416648 6.26456 -0.0416442 6.61998 0.124964 6.9086C0.291571 7.19722 0.599477 7.37495 0.9327 7.37495L0.932871 7.37584Z" fill="white"/>
<path d="M17.9835 13.5294C17.8762 12.6068 17.4321 11.7564 16.7364 11.1412C16.0405 10.526 15.1421 10.1893 14.2133 10.1958H7.80013C7.46692 10.1958 7.15902 10.3736 6.9924 10.6622C6.82579 10.9508 6.82579 11.3064 6.9924 11.5949C7.159 11.8835 7.46691 12.0612 7.80013 12.0612H14.2386C14.6904 12.0522 15.1301 12.2076 15.4759 12.4984C15.8218 12.7893 16.0503 13.1957 16.119 13.6422C16.1876 14.1628 16.0286 14.6877 15.6827 15.0826C15.3367 15.4777 14.8374 15.7046 14.3124 15.7054H12.24C11.9068 15.7054 11.5989 15.8831 11.4323 16.1718C11.2657 16.4602 11.2657 16.8158 11.4323 17.1044C11.5989 17.393 11.9068 17.5708 12.24 17.5708H14.3115C15.3501 17.5698 16.3405 17.1319 17.04 16.3642C17.7439 15.5968 18.0871 14.5656 17.9833 13.5295L17.9835 13.5294Z" fill="white"/>
<path d="M5.74487 11.1294C5.74473 10.8819 5.64643 10.6447 5.47165 10.4697C5.29674 10.2947 5.05954 10.1961 4.8122 10.1958H0.932769C0.599553 10.1958 0.291661 10.3736 0.125032 10.6622C-0.0415757 10.9508 -0.0415757 11.3064 0.125032 11.5949C0.29164 11.8835 0.599546 12.0612 0.932769 12.0612H4.8122C5.05929 12.0609 5.29621 11.9626 5.471 11.788C5.64579 11.6134 5.74435 11.3766 5.74488 11.1295L5.74487 11.1294Z" fill="white"/>
<path d="M12.7052 7.97826C12.7848 7.97826 12.8611 7.94665 12.9174 7.8904L13.5495 7.25824H13.5494C14.4182 7.43047 15.3143 7.14146 15.9188 6.49418C16.5234 5.8469 16.7505 4.93326 16.5194 4.07824C16.4918 3.97431 16.4106 3.89315 16.3067 3.86556C15.4517 3.63453 14.5381 3.86168 13.8908 4.46611C13.2435 5.07067 12.9545 5.9668 13.1267 6.83556L12.4931 7.46584C12.4074 7.55169 12.3817 7.68066 12.4282 7.79276C12.4746 7.90486 12.5839 7.97785 12.7053 7.97798L12.7052 7.97826Z" fill="white"/>
<path d="M6.23138 13.3244L5.59922 12.6923C5.48149 12.5785 5.29439 12.5803 5.17866 12.696C5.06293 12.8117 5.06134 12.9988 5.17505 13.1166L5.8068 13.7487V13.7486C5.64408 14.5852 5.90577 15.448 6.50579 16.0533C7.12976 16.6707 8.52452 17.195 9.19978 16.5033H9.19991C9.43068 15.6485 9.20366 14.7353 8.59963 14.0881C7.99548 13.4408 7.0999 13.1517 6.23136 13.3232L6.23138 13.3244Z" fill="white"/>
</svg>
