<svg width="12" height="25" viewBox="0 0 12 25" fill="none" xmlns="http://www.w3.org/2000/svg">
<path d="M0.570663 18.864C0.57121 17.9757 0.789255 17.101 1.20575 16.3163C1.62225 15.5317 2.22453 14.8609 2.96 14.3627V3.78133C2.96 2.928 3.248 2.20267 3.83466 1.616C4.42133 1.02933 5.14666 0.720001 6 0.720001C6.864 0.720001 7.58933 1.01867 8.176 1.60533C8.76266 2.20267 9.06133 2.91733 9.06133 3.77067V14.352C9.81866 14.8747 10.3947 15.536 10.8107 16.3147C11.2267 17.0933 11.4293 17.9467 11.4293 18.8533C11.4293 19.8347 11.184 20.752 10.704 21.584C10.224 22.416 9.56266 23.0773 8.73066 23.5573C7.89866 24.0373 6.992 24.2827 6 24.2827C5.01866 24.2827 4.112 24.0373 3.28 23.5573C2.448 23.0773 1.78666 22.416 1.296 21.584C0.80533 20.752 0.570663 19.8453 0.570663 18.864ZM2.448 18.864C2.448 19.856 2.8 20.7093 3.49333 21.4133C4.18666 22.1173 5.02933 22.4693 6.01066 22.4693C7.00266 22.4693 7.856 22.1173 8.57066 21.4027C9.28533 20.688 9.648 19.8453 9.648 18.8747C9.648 18.2133 9.47733 17.5947 9.136 17.0293C8.79466 16.464 8.32533 16.0267 7.728 15.7173L7.42933 15.568C7.32266 15.5253 7.26933 15.4187 7.26933 15.2587V3.78133C7.26933 3.44 7.152 3.152 6.90666 2.91733C6.66133 2.69333 6.36266 2.576 6 2.576C5.65866 2.576 5.36 2.69333 5.11466 2.91733C4.86933 3.14133 4.752 3.42933 4.752 3.78133V15.2373C4.752 15.3973 4.69866 15.504 4.60266 15.5467L4.31466 15.696C3.728 16.0053 3.26933 16.4427 2.93866 17.008C2.608 17.5733 2.448 18.1813 2.448 18.864ZM3.28 18.864C3.28 19.6213 3.536 20.272 4.05866 20.8053C4.58133 21.3387 5.2 21.6053 5.936 21.6053C6.672 21.6053 7.30133 21.3387 7.84533 20.8053C8.38933 20.272 8.656 19.6213 8.656 18.8747C8.656 18.2027 8.42133 17.6053 7.96266 17.0933C7.504 16.5813 6.93866 16.272 6.27733 16.1867V8.336C6.27733 8.272 6.24533 8.19733 6.17066 8.13333C6.14112 8.1002 6.10499 8.0736 6.06459 8.05524C6.02418 8.03687 5.98038 8.02714 5.936 8.02667C5.84 8.02667 5.76533 8.05867 5.712 8.112C5.65866 8.176 5.62666 8.24 5.62666 8.336V16.1653C4.976 16.2613 4.42133 16.56 3.96266 17.072C3.504 17.5947 3.28 18.1813 3.28 18.864Z" fill="white"/>
</svg>
