<svg width="15" height="18" viewBox="0 0 15 18" fill="none" xmlns="http://www.w3.org/2000/svg">
<path d="M0.803986 10.898C0.803986 10.1353 1.01999 9.26 1.45199 8.272C1.88399 7.284 2.44199 6.322 3.12599 5.40333C4.52999 3.618 5.75399 2.266 6.77999 1.356L7.45499 0.731998C7.67999 0.957332 7.93199 1.16533 8.20199 1.356C8.57099 1.72 9.13799 2.318 9.89399 3.16733C10.65 4.01667 11.307 4.77067 11.847 5.464C12.486 6.33933 13.035 7.284 13.476 8.28067C13.917 9.27733 14.142 10.1527 14.142 10.9067C14.142 11.7733 13.971 12.5967 13.62 13.3853C13.269 14.174 12.801 14.8587 12.207 15.4307C11.613 16.0027 10.902 16.462 10.074 16.8C9.24599 17.138 8.37299 17.3113 7.45499 17.3113C6.55499 17.3113 5.69999 17.1467 4.88099 16.8173C4.06199 16.488 3.35099 16.046 2.75699 15.474C2.16299 14.9107 1.68599 14.226 1.33499 13.4373C0.983985 12.6487 0.803986 11.7993 0.803986 10.898ZM2.83799 8.35867C2.83799 9.078 2.99099 9.65 3.30599 10.0833C3.62099 10.508 4.09799 10.7247 4.73699 10.7247C5.38499 10.7247 5.86199 10.508 6.18599 10.0833C6.50099 9.65867 6.66299 9.08667 6.67199 8.35867C6.66299 7.63067 6.50099 7.05867 6.18599 6.62533C5.87099 6.20067 5.38499 5.984 4.73699 5.984C4.09799 5.984 3.62099 6.20067 3.30599 6.62533C2.99099 7.05867 2.83799 7.63067 2.83799 8.35867ZM4.25099 8.35867V8.05533C4.25099 7.986 4.25999 7.89067 4.26899 7.76933C4.27799 7.648 4.28699 7.55267 4.31399 7.492C4.34099 7.43133 4.35899 7.35333 4.39499 7.284C4.43099 7.21467 4.47599 7.154 4.52999 7.128C4.59299 7.09333 4.65599 7.076 4.73699 7.076C4.86299 7.076 4.96199 7.11067 5.03399 7.18C5.10599 7.24933 5.15999 7.362 5.18699 7.50933C5.21399 7.66533 5.23199 7.78667 5.24099 7.89933C5.24999 8.012 5.24999 8.15933 5.24999 8.35C5.24999 8.54933 5.24999 8.69667 5.24099 8.80067C5.23199 8.90467 5.21399 9.03467 5.18699 9.19067C5.15999 9.338 5.10599 9.45067 5.03399 9.52C4.96199 9.58933 4.86299 9.624 4.73699 9.624C4.65599 9.624 4.59299 9.60667 4.52999 9.572C4.46695 9.53734 4.41902 9.48195 4.39499 9.416C4.35899 9.34667 4.33199 9.26867 4.31399 9.208C4.29599 9.13867 4.27799 9.04333 4.26899 8.93067C4.25999 8.80933 4.25099 8.714 4.25099 8.65333V8.35867ZM4.78199 15.0753H5.96999L10.461 5.76733H9.24599L4.78199 15.0753ZM8.65199 12.484C8.66099 13.212 8.83199 13.784 9.14699 14.2173C9.46199 14.642 9.94799 14.8587 10.587 14.8587C11.235 14.8587 11.712 14.642 12.027 14.2173C12.342 13.7927 12.495 13.212 12.504 12.484C12.495 11.756 12.342 11.184 12.027 10.7593C11.712 10.3347 11.235 10.118 10.587 10.118C9.94799 10.118 9.46199 10.3347 9.14699 10.7593C8.82299 11.184 8.66099 11.756 8.65199 12.484ZM10.065 12.484C10.065 12.2847 10.065 12.1373 10.074 12.0333C10.083 11.9293 10.101 11.7993 10.128 11.6433C10.155 11.4873 10.209 11.3833 10.281 11.314C10.353 11.2447 10.452 11.21 10.578 11.21C10.659 11.21 10.731 11.2273 10.794 11.262C10.857 11.2967 10.902 11.3487 10.938 11.4267C10.974 11.5047 11.001 11.574 11.028 11.6347C11.055 11.6953 11.064 11.7907 11.073 11.912L11.082 12.1893V12.7873L11.073 13.0647L11.028 13.342L10.938 13.55L10.794 13.7147L10.578 13.7667C10.452 13.7667 10.353 13.732 10.281 13.6627C10.209 13.5933 10.155 13.4807 10.128 13.3333C10.101 13.1773 10.083 13.0473 10.074 12.9433C10.065 12.8393 10.065 12.6833 10.065 12.484Z" fill="black"/>
</svg>
