<svg width="32" height="32" viewBox="0 0 32 32" fill="none" xmlns="http://www.w3.org/2000/svg">
<path d="M4.384 16.96C4.384 16.6827 4.48 16.4587 4.672 16.2987C4.82134 16.1387 5.04534 16.0533 5.33334 16.0533H7.552C7.808 16.0533 8.032 16.1387 8.192 16.3093C8.36267 16.48 8.448 16.6933 8.448 16.9493C8.448 17.2053 8.36267 17.4187 8.192 17.6C8.02134 17.7813 7.808 17.8667 7.552 17.8667H5.33334C5.07734 17.8667 4.85334 17.7813 4.66134 17.6C4.57039 17.5207 4.4983 17.4221 4.45032 17.3113C4.40234 17.2006 4.37968 17.0806 4.384 16.96V16.96ZM5.36534 22.3787C5.36534 22.1333 5.46134 21.92 5.64267 21.728C5.81334 21.5573 6.03734 21.4827 6.29334 21.4827H25.7173C25.9733 21.4827 26.1973 21.568 26.3787 21.7387C26.56 21.9093 26.6453 22.1227 26.6453 22.3787C26.6453 22.6347 26.5493 22.848 26.368 23.0293C26.1867 23.2107 25.9627 23.3067 25.7173 23.3067H6.304C6.048 23.3067 5.83467 23.2107 5.65334 23.0293C5.472 22.848 5.36534 22.6347 5.36534 22.3787V22.3787ZM7.552 9.39733C7.552 9.12 7.63734 8.91733 7.79734 8.768C7.97867 8.576 8.20267 8.47999 8.45867 8.47999C8.71467 8.47999 8.928 8.576 9.10934 8.768L10.6453 10.3253C10.8373 10.496 10.9227 10.7093 10.9227 10.9653C10.9269 11.0846 10.9067 11.2035 10.8633 11.3148C10.82 11.426 10.7543 11.5272 10.6704 11.6121C10.5865 11.697 10.4861 11.7638 10.3754 11.8085C10.2647 11.8532 10.146 11.8748 10.0267 11.872C9.792 11.872 9.57867 11.7867 9.38667 11.616L7.79734 10.048C7.63734 9.89866 7.552 9.68533 7.552 9.39733V9.39733ZM10.3253 16.96C10.3253 17.888 10.5173 18.72 10.8907 19.4453C10.9227 19.5413 11.008 19.5947 11.1467 19.5947H12.928C13.0027 19.5947 13.056 19.5733 13.0773 19.5307C13.0987 19.488 13.0667 19.424 13.0027 19.36C12.4373 18.6667 12.1493 17.8667 12.1493 16.96C12.1493 15.904 12.5333 14.9973 13.2907 14.2507C14.048 13.504 14.9547 13.1307 16.0107 13.1307C17.0667 13.1307 17.9733 13.504 18.7307 14.2507C19.488 14.9973 19.8507 15.904 19.8507 16.96C19.8507 17.8773 19.5627 18.6773 18.9973 19.36C18.9547 19.424 18.9333 19.4667 18.9333 19.488C18.9227 19.52 18.9333 19.552 18.9653 19.5627C18.9867 19.584 19.0293 19.5947 19.072 19.5947H20.8853C20.9813 19.5947 21.056 19.5413 21.1093 19.4453C21.5147 18.688 21.7067 17.8667 21.7067 16.96C21.7067 15.936 21.4507 14.9867 20.9387 14.112C20.4267 13.2373 19.7333 12.544 18.8587 12.032C17.984 11.52 17.0347 11.264 16.0107 11.264C14.9867 11.264 14.0373 11.52 13.1627 12.032C12.288 12.544 11.5947 13.2373 11.0827 14.112C10.5707 14.9867 10.3253 15.936 10.3253 16.96V16.96ZM15.0933 8.50133V6.272C15.0933 6.016 15.1787 5.80266 15.36 5.61066C15.5413 5.41866 15.7547 5.33333 16.0107 5.33333C16.2667 5.33333 16.48 5.42933 16.672 5.61066C16.8533 5.792 16.9493 6.016 16.9493 6.272V8.50133C16.9493 8.75733 16.8533 8.97066 16.672 9.16266C16.48 9.35466 16.2667 9.44 16.0107 9.44C15.7547 9.44 15.5413 9.344 15.36 9.16266C15.2737 9.07581 15.2056 8.97255 15.1598 8.85897C15.114 8.74538 15.0914 8.62378 15.0933 8.50133V8.50133ZM21.088 10.9653C21.088 10.7093 21.1733 10.496 21.344 10.3253L22.88 8.768C23.0613 8.576 23.2853 8.47999 23.5413 8.47999C23.808 8.47999 24.032 8.56533 24.2027 8.74666C24.384 8.92799 24.4693 9.14133 24.4693 9.39733C24.4693 9.67466 24.384 9.888 24.224 10.048L22.6133 11.616C22.4427 11.776 22.2293 11.8507 21.984 11.8507C21.8652 11.8587 21.7461 11.8419 21.6341 11.8016C21.5221 11.7612 21.4197 11.698 21.3333 11.616C21.251 11.5294 21.1869 11.4273 21.1448 11.3155C21.1027 11.2037 21.0834 11.0847 21.088 10.9653V10.9653ZM23.5733 16.96C23.5733 16.672 23.6587 16.4587 23.8293 16.2987C23.9787 16.1387 24.192 16.0533 24.4587 16.0533H26.688C26.944 16.0533 27.168 16.1387 27.3493 16.3093C27.5307 16.48 27.6267 16.6933 27.6267 16.9493C27.6267 17.2053 27.5307 17.4187 27.3493 17.6C27.2625 17.6863 27.1592 17.7544 27.0456 17.8002C26.9321 17.846 26.8105 17.8686 26.688 17.8667H24.4587C24.2133 17.8667 24 17.7813 23.8293 17.6C23.7452 17.5164 23.6791 17.4166 23.6351 17.3065C23.5911 17.1964 23.5701 17.0785 23.5733 16.96V16.96Z" fill="black"/>
</svg>
