<svg width="32" height="32" viewBox="0 0 32 32" fill="none" xmlns="http://www.w3.org/2000/svg">
<path d="M5.25867 22.368C5.25867 22.0907 5.35467 21.8667 5.55733 21.7067C5.70667 21.536 5.93067 21.4613 6.22933 21.4613H25.792C26.0587 21.4613 26.2827 21.5467 26.4747 21.7173C26.6667 21.888 26.752 22.112 26.752 22.368C26.752 22.624 26.656 22.848 26.464 23.0293C26.272 23.2107 26.048 23.3173 25.792 23.3173H6.22933C6.10187 23.3188 5.97546 23.294 5.85801 23.2444C5.74056 23.1949 5.63457 23.1217 5.54667 23.0293C5.45472 22.9457 5.38152 22.8435 5.33189 22.7295C5.28225 22.6155 5.2573 22.4923 5.25867 22.368V22.368ZM7.36 13.5253C7.36 13.248 7.44533 13.024 7.60533 12.8533C7.78667 12.6613 8.01067 12.576 8.29867 12.576C8.544 12.576 8.75733 12.672 8.93867 12.8533L10.5387 14.4533C10.6297 14.5389 10.7022 14.6422 10.7517 14.7569C10.8013 14.8715 10.8269 14.9951 10.8269 15.12C10.8269 15.2449 10.8013 15.3685 10.7517 15.4831C10.7022 15.5978 10.6297 15.7011 10.5387 15.7867C10.3787 15.9787 10.1653 16.0747 9.89867 16.0747C9.632 16.0747 9.39733 15.9787 9.216 15.7867L7.616 14.1867C7.44533 14.0267 7.36 13.8133 7.36 13.5253V13.5253ZM10.4853 19.488C10.4427 19.6587 10.496 19.7333 10.6453 19.7333H12.2347C12.3093 19.7333 12.384 19.6693 12.4693 19.552C12.7893 18.8693 13.2587 18.336 13.888 17.9307C14.5173 17.5253 15.2107 17.3333 15.9787 17.3333C16.7573 17.3333 17.4613 17.536 18.1013 17.9307C18.7413 18.3253 19.2213 18.8693 19.5413 19.552C19.6267 19.6693 19.712 19.7333 19.7867 19.7333H21.3653C21.504 19.7333 21.5573 19.648 21.5253 19.488C21.1773 18.3034 20.4456 17.2678 19.4453 16.544C18.4213 15.7867 17.2693 15.4133 15.9787 15.4133C14.6987 15.4133 13.5467 15.7867 12.5333 16.544C11.5413 17.3013 10.848 18.2827 10.4853 19.488ZM15.0827 12.5973V10.3253C15.0827 10.0587 15.168 9.83467 15.3387 9.64267C15.5093 9.45067 15.7333 9.36534 15.9893 9.36534C16.1147 9.36442 16.2389 9.38879 16.3546 9.43698C16.4703 9.48517 16.5751 9.5562 16.6627 9.64581C16.7504 9.73543 16.819 9.8418 16.8646 9.95855C16.9102 10.0753 16.9317 10.2001 16.928 10.3253V12.608C16.9337 12.7333 16.9133 12.8584 16.8683 12.9754C16.8233 13.0924 16.7545 13.1989 16.6664 13.288C16.5782 13.3772 16.4725 13.4472 16.356 13.4935C16.2395 13.5399 16.1147 13.5616 15.9893 13.5573C15.7333 13.5573 15.5093 13.4613 15.3387 13.28C15.168 13.0987 15.0827 12.864 15.0827 12.5973V12.5973ZM21.184 15.1253C21.184 14.8693 21.2693 14.6453 21.4507 14.4533L23.0933 12.8533C23.264 12.6613 23.4773 12.576 23.7547 12.576C24.0107 12.576 24.224 12.6613 24.3947 12.8427C24.5653 13.024 24.64 13.248 24.64 13.5253C24.64 13.8027 24.5547 14.0267 24.3947 14.1867L22.816 15.7867C22.6347 15.968 22.432 16.064 22.2187 16.0853C21.9733 16.1067 21.7493 16.0213 21.5253 15.8293C21.3013 15.6373 21.184 15.392 21.184 15.1253V15.1253Z" fill="white"/>
</svg>
