<svg width="23" height="16" viewBox="0 0 23 16" fill="none" xmlns="http://www.w3.org/2000/svg">
<path d="M11.4583 4.6875C10.6295 4.6875 9.83468 5.01674 9.24862 5.60279C8.66257 6.18884 8.33333 6.9837 8.33333 7.8125C8.33333 8.6413 8.66257 9.43616 9.24862 10.0222C9.83468 10.6083 10.6295 10.9375 11.4583 10.9375C12.2871 10.9375 13.082 10.6083 13.668 10.0222C14.2541 9.43616 14.5833 8.6413 14.5833 7.8125C14.5833 6.9837 14.2541 6.18884 13.668 5.60279C13.082 5.01674 12.2871 4.6875 11.4583 4.6875ZM11.4583 13.0208C10.077 13.0208 8.75224 12.4721 7.77549 11.4953C6.79873 10.5186 6.25 9.19384 6.25 7.8125C6.25 6.43116 6.79873 5.1064 7.77549 4.12965C8.75224 3.1529 10.077 2.60417 11.4583 2.60417C12.8397 2.60417 14.1644 3.1529 15.1412 4.12965C16.1179 5.1064 16.6667 6.43116 16.6667 7.8125C16.6667 9.19384 16.1179 10.5186 15.1412 11.4953C14.1644 12.4721 12.8397 13.0208 11.4583 13.0208ZM11.4583 0C6.25 0 1.80208 3.23958 0 7.8125C1.80208 12.3854 6.25 15.625 11.4583 15.625C16.6667 15.625 21.1146 12.3854 22.9167 7.8125C21.1146 3.23958 16.6667 0 11.4583 0Z" fill="white"/>
</svg>
